# xmcd CD database file
#
# Track frame offsets:
#	151
#	12546
#	27799
#	46824
#	73088
#	92760
#	106989
#	127851
#
# Disc length: 2016 seconds
#
# Revision: 0
# Processed by: cddbd v1.5.2PL0 Copyright (c) Steve Scherf et al.
# Submitted via: CDex 1.51
#
DISCID=5f07de08
DTITLE=George Shearing - The George Shearing Quartet
DYEAR=2002
DGENRE=Jazz
TTITLE0=Yesterday
TTITLE1=For All We Know
TTITLE2=Oh, You Crazy Moon
TTITLE3=Sweet Georgie Fame
TTITLE4=Please Send Me Someone to Love
TTITLE5=Message
TTITLE6=Everything's Alright
TTITLE7=Secret Love
EXTD=YEAR: 2002
EXTT0=
EXTT1=
EXTT2=
EXTT3=
EXTT4=
EXTT5=
EXTT6=
EXTT7=
PLAYORDER=
